<svg xmlns="http://www.w3.org/2000/svg" xmlns:xlink="http://www.w3.org/1999/xlink" width="40" height="40" viewBox="0 0 40 40">
    <defs>
        <rect id="b" width="32" height="32" rx="3"/>
        <filter id="a" width="134.4%" height="134.4%" x="-17.2%" y="-14.1%" filterUnits="objectBoundingBox">
            <feMorphology in="SourceAlpha" operator="dilate" radius="2" result="shadowSpreadOuter1"/>
            <feOffset dy="1" in="shadowSpreadOuter1" result="shadowOffsetOuter1"/>
            <feGaussianBlur in="shadowOffsetOuter1" result="shadowBlurOuter1" stdDeviation="1"/>
            <feComposite in="shadowBlurOuter1" in2="SourceAlpha" operator="out" result="shadowBlurOuter1"/>
            <feColorMatrix in="shadowBlurOuter1" values="0 0 0 0 0 0 0 0 0 0 0 0 0 0 0 0 0 0 0.2 0"/>
        </filter>
    </defs>
    <g fill="none" fill-rule="evenodd">
        <g transform="translate(4 3)">
            <use fill="#000" filter="url(#a)" xlink:href="#b"/>
            <rect width="34" height="34" x="-1" y="-1" fill="#FF6536" stroke="#FFF" stroke-width="2" rx="3"/>
        </g>
        <g fill="#FFF" transform="translate(11 13)">
            <rect width="2.227" height="9.804" x=".073" y=".019" rx="1.114"/>
            <path d="M.706 13.262a.57.57 0 0 1-.457-.197c-.113-.132-.17-.31-.17-.533 0-.222.058-.4.171-.531a.57.57 0 0 1 .456-.199c.151 0 .28.043.385.13.106.085.17.198.191.34h-.175a.381.381 0 0 0-.142-.223.415.415 0 0 0-.26-.084.394.394 0 0 0-.325.155.646.646 0 0 0-.122.412c0 .173.04.31.121.413.081.103.19.155.328.155a.448.448 0 0 0 .258-.072.354.354 0 0 0 .142-.2h.175a.533.533 0 0 1-.197.322.614.614 0 0 1-.38.112zm1.377-1.46a.59.59 0 0 1 .468.197c.115.131.172.31.172.534 0 .224-.057.401-.172.532a.59.59 0 0 1-.468.197.59.59 0 0 1-.468-.197c-.114-.13-.172-.308-.172-.532 0-.225.058-.403.172-.534a.59.59 0 0 1 .468-.197zm0 .163a.412.412 0 0 0-.337.153.638.638 0 0 0-.125.415c0 .173.042.311.125.413a.412.412 0 0 0 .337.154.412.412 0 0 0 .338-.154.636.636 0 0 0 .124-.413.638.638 0 0 0-.124-.415.412.412 0 0 0-.338-.153zm1.038 1.274H2.95v-1.413h.168l.76 1.11h.01v-1.11h.17v1.413H3.89l-.76-1.106H3.12v1.106zm1.39 0h-.172v-1.413h.168l.76 1.11h.01v-1.11h.17v1.413H5.28l-.76-1.106H4.51v1.106zm2.078-.159v.159h-.861v-1.413h.86v.158h-.687v.454h.652v.156h-.652v.486h.688zm.81.182a.57.57 0 0 1-.456-.197c-.113-.132-.17-.31-.17-.533 0-.222.057-.4.17-.531a.57.57 0 0 1 .456-.199c.152 0 .28.043.386.13.105.085.17.198.19.34h-.174a.381.381 0 0 0-.143-.223.415.415 0 0 0-.259-.084.394.394 0 0 0-.325.155.646.646 0 0 0-.122.412c0 .173.04.31.12.413.082.103.19.155.328.155a.448.448 0 0 0 .258-.072.354.354 0 0 0 .143-.2h.175a.533.533 0 0 1-.197.322.614.614 0 0 1-.38.112zm1.249-.023h-.173v-1.255h-.438v-.158h1.049v.158h-.438v1.255zm1.571 0h-.173v-1.255h-.438v-.158h1.05v.158h-.439v1.255zm1.342 0l-.021-.061a74.472 74.472 0 0 1-.097-.282l-.022-.062h-.552l-.14.405h-.182l.512-1.413h.172l.512 1.413h-.182zm-.419-1.199l-.022.065a30.915 30.915 0 0 0-.122.353l-.056.161-.022.066h.45l-.222-.645h-.006zm1.614 1.04v.159h-.844v-1.413h.174v1.254h.67zm1.062 0v.159h-.861v-1.413h.86v.158h-.687v.454h.652v.156h-.652v.486h.688zm.41.159h-.172v-1.413h.169l.76 1.11h.009v-1.11h.171v1.413h-.168l-.76-1.106h-.01v1.106zm1.742 0h-.173v-1.255h-.438v-.158h1.05v.158h-.439v1.255zm.565-.38h.174c.01.077.047.136.112.18a.432.432 0 0 0 .246.065.382.382 0 0 0 .233-.068.206.206 0 0 0 .092-.172c0-.06-.02-.11-.063-.149a.442.442 0 0 0-.206-.091l-.155-.034a.599.599 0 0 1-.303-.143.34.34 0 0 1-.095-.248.35.35 0 0 1 .137-.286.544.544 0 0 1 .353-.11c.139 0 .253.037.344.113.09.076.137.175.141.295h-.173a.254.254 0 0 0-.096-.183.346.346 0 0 0-.22-.067c-.088 0-.16.02-.22.061a.194.194 0 0 0-.088.169c0 .056.02.103.06.141a.43.43 0 0 0 .204.09l.154.033c.145.032.249.08.31.14a.324.324 0 0 1 .094.242.38.38 0 0 1-.14.31.571.571 0 0 1-.373.115.583.583 0 0 1-.368-.11.388.388 0 0 1-.154-.292z"/>
            <rect width="2.227" height="9.804" x="7.777" y=".019" rx="1.114"/>
            <rect width="2.227" height="9.804" x="3.907" y=".019" rx="1.114"/>
            <rect width="2.227" height="6.61" x="13.619" y="-2.172" rx="1.114" transform="rotate(90 14.732 1.133)"/>
            <rect width="2.227" height="6.164" x="13.4" y="1.95" rx="1.114" transform="rotate(90 14.513 5.032)"/>
        </g>
    </g>
</svg>
